<svg width="30" height="30" viewBox="0 0 30 30" fill="none" xmlns="http://www.w3.org/2000/svg">
<path d="M11.2266 0.0262108C8.15766 0.41815 5.77508 1.56457 3.66703 3.68103C1.82371 5.51334 0.676537 7.6494 0.176488 10.1284C-0.0588293 11.3042 -0.0588293 13.7146 0.176488 14.8905C0.676537 17.3695 1.82371 19.5055 3.66703 21.3378C5.48093 23.1603 7.53996 24.2774 10.05 24.8163C11.2168 25.0612 13.7857 25.0612 14.9524 24.8163C17.4625 24.2774 19.5215 23.1603 21.3354 21.3378C23.1885 19.4859 24.2769 17.487 24.8162 14.959C25.0613 13.793 25.0613 11.2258 24.8162 10.0598C24.2769 7.53182 23.1885 5.53294 21.3354 3.68103C19.5117 1.84872 17.3448 0.682707 14.9328 0.212381C14.1288 0.0556068 11.8835 -0.0521755 11.2266 0.0262108ZM10.1382 6.16984C10.2167 6.27762 10.1873 6.45399 10.0108 6.89492C9.26561 8.71743 9.50093 11.0103 10.5893 12.6466C11.1383 13.4795 12.0894 14.3025 13.0111 14.7631C14.6877 15.5861 16.384 15.6645 18.0802 14.9884C18.6293 14.7631 18.7175 14.7533 18.845 14.8905C18.9823 15.0276 18.9626 15.0962 18.6783 15.6155C18.492 15.9291 17.992 16.5366 17.5507 16.9775C16.2369 18.2905 14.7073 18.9176 12.8444 18.9176C11.6482 18.9078 10.8736 18.7216 9.75586 18.1729C9.08913 17.8496 8.75576 17.5948 8.07922 16.9187C7.36347 16.2132 7.15756 15.9291 6.78498 15.155C6.53986 14.6455 6.28493 13.9792 6.2163 13.6852C6.03 12.921 6.05942 11.2258 6.26532 10.4518C6.68693 8.8938 7.95176 7.18888 9.27542 6.405C9.98137 5.99347 9.98137 5.99347 10.1382 6.16984Z" fill="white"/>
</svg>
